# xmcd
#
# Track frame offsets:
#	150
#	23880
#	46161
#	66423
#	89440
#	108796
#	131355
#	151917
#	173919
#	195248
#	225713
#
# Disc length: 3677 seconds
#
# Revision: 0
# Processed by: cddbd v1.5.2PL0 Copyright (c) Steve Scherf et al.
# Submitted via: dBpowerAMP V4.0
#
DISCID=820e5b0b
DTITLE=Lam Truong - Chuyen Hom Qua
DYEAR=2007
DGENRE=Pop
TTITLE0=Va Em Da Den
TTITLE1=Bay Sac Cau Vong
TTITLE2=De Me
TTITLE3=Chuyen Hom Qua
TTITLE4=Bong Hinh
TTITLE5=Co Le
TTITLE6=Anh Luon Cho Mong
TTITLE7=Bo Vai Diu Dang
TTITLE8=Mua Van Roi
TTITLE9=Nhu Mua Thu Qua
TTITLE10=DATA
EXTD=Lam Truong
EXTT0=
EXTT1=
EXTT2=
EXTT3=
EXTT4=
EXTT5=
EXTT6=
EXTT7=
EXTT8=
EXTT9=
EXTT10=
PLAYORDER=
